<svg xmlns="http://www.w3.org/2000/svg" xmlns:xlink="http://www.w3.org/1999/xlink" width="500" zoomAndPan="magnify" viewBox="0 0 375 374.999991" height="500" preserveAspectRatio="xMidYMid meet" version="1.0"><defs><clipPath id="efa557ec52"><path d="M 103.101562 125 L 195 125 L 195 250 L 103.101562 250 Z M 103.101562 125 " clip-rule="nonzero"/></clipPath><clipPath id="2272b6df12"><path d="M 211 151 L 271.851562 151 L 271.851562 221 L 211 221 Z M 211 151 " clip-rule="nonzero"/></clipPath></defs><g clip-path="url(#efa557ec52)"><path fill="#ffffff" d="M 194.734375 136.890625 L 194.734375 238.101562 C 194.734375 248.488281 182.222656 253.78125 174.765625 246.53125 L 148.664062 221.167969 L 119.660156 221.167969 C 110.554688 221.203125 103.203125 213.816406 103.203125 204.746094 L 103.203125 170.277344 C 103.203125 161.207031 110.554688 153.820312 119.660156 153.820312 L 148.765625 153.820312 L 174.765625 128.492188 C 182.222656 121.207031 194.734375 126.503906 194.734375 136.890625 Z M 194.734375 136.890625 " fill-opacity="1" fill-rule="nonzero"/></g><g clip-path="url(#2272b6df12)"><path fill="#ffffff" d="M 214.160156 207.816406 L 232.472656 185.320312 L 215.203125 164.273438 C 214.058594 162.824219 212.976562 160.867188 212.976562 158.746094 C 212.976562 154.5625 216.082031 151.390625 220.332031 151.390625 C 223.535156 151.390625 225.355469 152.640625 227.210938 155.066406 L 242.050781 174.832031 L 256.789062 155.4375 C 258.8125 152.808594 260.765625 151.359375 264.070312 151.359375 C 267.378906 151.359375 270.851562 153.988281 270.851562 158.238281 C 270.851562 160.363281 270.074219 162.117188 268.625 163.972656 L 251.359375 185.117188 L 269.570312 207.511719 C 270.714844 208.960938 271.796875 210.917969 271.796875 213.042969 C 271.796875 217.222656 268.691406 220.394531 264.441406 220.394531 C 261.238281 220.394531 259.417969 219.144531 257.5625 216.71875 L 241.679688 195.875 L 225.960938 216.3125 C 223.9375 218.945312 221.984375 220.394531 218.679688 220.394531 C 215.371094 220.394531 211.898438 217.761719 211.898438 213.515625 C 211.933594 211.390625 212.707031 209.636719 214.160156 207.816406 Z M 214.160156 207.816406 " fill-opacity="1" fill-rule="nonzero"/></g></svg>