<svg xmlns="http://www.w3.org/2000/svg" xmlns:xlink="http://www.w3.org/1999/xlink" width="500" zoomAndPan="magnify" viewBox="0 0 375 374.999991" height="500" preserveAspectRatio="xMidYMid meet" version="1.0"><defs><clipPath id="b9f253eee6"><path d="M 241 123.429688 L 279 123.429688 L 279 253.929688 L 241 253.929688 Z M 241 123.429688 " clip-rule="nonzero"/></clipPath><clipPath id="9f37f33f15"><path d="M 103.101562 125 L 195 125 L 195 250 L 103.101562 250 Z M 103.101562 125 " clip-rule="nonzero"/></clipPath></defs><path fill="#ffffff" d="M 235.375 143.484375 C 235.070312 143.183594 234.746094 142.917969 234.390625 142.679688 C 234.035156 142.445312 233.660156 142.246094 233.269531 142.085938 C 232.875 141.925781 232.46875 141.800781 232.050781 141.71875 C 231.636719 141.640625 231.214844 141.597656 230.789062 141.601562 C 230.363281 141.601562 229.941406 141.644531 229.527344 141.726562 C 229.109375 141.8125 228.703125 141.9375 228.3125 142.101562 C 227.917969 142.265625 227.546875 142.464844 227.195312 142.703125 C 226.839844 142.941406 226.515625 143.210938 226.214844 143.511719 C 225.914062 143.8125 225.648438 144.140625 225.414062 144.496094 C 225.179688 144.851562 224.980469 145.226562 224.820312 145.617188 C 224.65625 146.011719 224.535156 146.417969 224.453125 146.835938 C 224.375 147.253906 224.332031 147.671875 224.335938 148.097656 C 224.335938 148.523438 224.378906 148.945312 224.464844 149.363281 C 224.550781 149.777344 224.675781 150.183594 224.839844 150.574219 C 225.003906 150.96875 225.203125 151.339844 225.441406 151.691406 C 225.679688 152.046875 225.949219 152.371094 226.25 152.671875 C 227.445312 153.851562 228.578125 155.09375 229.652344 156.386719 C 230.722656 157.683594 231.730469 159.027344 232.667969 160.421875 C 233.605469 161.816406 234.476562 163.253906 235.273438 164.734375 C 236.070312 166.210938 236.789062 167.726562 237.4375 169.28125 C 238.085938 170.832031 238.652344 172.410156 239.144531 174.019531 C 239.636719 175.625 240.046875 177.253906 240.375 178.902344 C 240.707031 180.550781 240.953125 182.210938 241.121094 183.882812 C 241.285156 185.558594 241.367188 187.234375 241.367188 188.914062 C 241.367188 190.597656 241.285156 192.273438 241.121094 193.945312 C 240.953125 195.617188 240.707031 197.28125 240.375 198.929688 C 240.046875 200.578125 239.636719 202.203125 239.144531 203.8125 C 238.652344 205.417969 238.085938 207 237.4375 208.550781 C 236.789062 210.101562 236.070312 211.617188 235.273438 213.097656 C 234.476562 214.578125 233.605469 216.015625 232.667969 217.410156 C 231.730469 218.804688 230.722656 220.148438 229.652344 221.445312 C 228.578125 222.738281 227.445312 223.976562 226.25 225.160156 C 225.867188 225.4375 225.519531 225.75 225.203125 226.101562 C 224.890625 226.453125 224.617188 226.835938 224.382812 227.25 C 224.152344 227.660156 223.96875 228.09375 223.832031 228.546875 C 223.695312 228.996094 223.609375 229.460938 223.574219 229.929688 C 223.539062 230.402344 223.554688 230.871094 223.625 231.339844 C 223.691406 231.804688 223.808594 232.261719 223.976562 232.703125 C 224.140625 233.144531 224.355469 233.5625 224.613281 233.957031 C 224.871094 234.355469 225.171875 234.714844 225.507812 235.046875 C 225.847656 235.375 226.21875 235.664062 226.621094 235.914062 C 227.019531 236.164062 227.445312 236.367188 227.890625 236.523438 C 228.335938 236.675781 228.792969 236.785156 229.261719 236.839844 C 229.734375 236.894531 230.203125 236.898438 230.671875 236.851562 C 231.144531 236.804688 231.601562 236.707031 232.050781 236.558594 C 232.5 236.410156 232.925781 236.214844 233.332031 235.976562 C 233.738281 235.734375 234.113281 235.449219 234.457031 235.128906 C 234.800781 234.804688 235.109375 234.445312 235.375 234.054688 C 236.117188 233.316406 236.839844 232.558594 237.546875 231.78125 C 238.25 231.003906 238.9375 230.210938 239.601562 229.402344 C 240.269531 228.59375 240.914062 227.769531 241.539062 226.925781 C 242.164062 226.085938 242.769531 225.230469 243.355469 224.355469 C 243.9375 223.484375 244.5 222.601562 245.039062 221.703125 C 245.578125 220.804688 246.097656 219.890625 246.59375 218.96875 C 247.085938 218.042969 247.558594 217.109375 248.007812 216.160156 C 248.457031 215.210938 248.882812 214.253906 249.285156 213.285156 C 249.6875 212.316406 250.066406 211.339844 250.417969 210.351562 C 250.773438 209.367188 251.101562 208.371094 251.40625 207.367188 C 251.710938 206.363281 251.992188 205.355469 252.246094 204.335938 C 252.503906 203.320312 252.734375 202.296875 252.9375 201.269531 C 253.140625 200.242188 253.320312 199.207031 253.476562 198.171875 C 253.628906 197.132812 253.757812 196.09375 253.863281 195.050781 C 253.964844 194.007812 254.042969 192.960938 254.09375 191.914062 C 254.144531 190.867188 254.171875 189.820312 254.171875 188.769531 C 254.171875 187.722656 254.144531 186.671875 254.09375 185.625 C 254.042969 184.578125 253.964844 183.535156 253.863281 182.488281 C 253.757812 181.445312 253.628906 180.40625 253.476562 179.367188 C 253.320312 178.332031 253.140625 177.300781 252.9375 176.269531 C 252.734375 175.242188 252.503906 174.21875 252.246094 173.203125 C 251.992188 172.1875 251.710938 171.175781 251.40625 170.171875 C 251.101562 169.167969 250.773438 168.175781 250.417969 167.1875 C 250.066406 166.199219 249.6875 165.222656 249.285156 164.253906 C 248.882812 163.285156 248.457031 162.328125 248.007812 161.378906 C 247.558594 160.433594 247.085938 159.496094 246.59375 158.570312 C 246.097656 157.648438 245.578125 156.734375 245.039062 155.835938 C 244.5 154.9375 243.9375 154.054688 243.355469 153.183594 C 242.769531 152.3125 242.164062 151.453125 241.539062 150.613281 C 240.914062 149.773438 240.269531 148.945312 239.601562 148.136719 C 238.9375 147.328125 238.25 146.535156 237.546875 145.757812 C 236.839844 144.980469 236.117188 144.222656 235.375 143.484375 Z M 235.375 143.484375 " fill-opacity="1" fill-rule="nonzero"/><g clip-path="url(#b9f253eee6)"><path fill="#ffffff" d="M 252.777344 126.082031 C 252.480469 125.757812 252.15625 125.464844 251.804688 125.207031 C 251.449219 124.949219 251.074219 124.730469 250.675781 124.546875 C 250.277344 124.367188 249.863281 124.226562 249.4375 124.128906 C 249.007812 124.03125 248.574219 123.976562 248.136719 123.964844 C 247.699219 123.957031 247.265625 123.988281 246.835938 124.066406 C 246.402344 124.144531 245.984375 124.265625 245.578125 124.429688 C 245.171875 124.59375 244.785156 124.796875 244.417969 125.039062 C 244.054688 125.28125 243.714844 125.554688 243.40625 125.867188 C 243.097656 126.175781 242.824219 126.515625 242.582031 126.882812 C 242.34375 127.25 242.140625 127.636719 241.980469 128.042969 C 241.816406 128.449219 241.699219 128.867188 241.621094 129.300781 C 241.542969 129.730469 241.511719 130.164062 241.523438 130.605469 C 241.535156 131.042969 241.589844 131.472656 241.6875 131.902344 C 241.789062 132.328125 241.929688 132.742188 242.113281 133.136719 C 242.296875 133.535156 242.519531 133.910156 242.777344 134.265625 C 243.035156 134.617188 243.328125 134.941406 243.65625 135.234375 C 244.535156 136.109375 245.394531 137.003906 246.230469 137.917969 C 247.070312 138.832031 247.882812 139.769531 248.671875 140.722656 C 249.464844 141.679688 250.230469 142.652344 250.972656 143.648438 C 251.714844 144.640625 252.433594 145.652344 253.125 146.679688 C 253.816406 147.710938 254.484375 148.753906 255.125 149.816406 C 255.765625 150.878906 256.382812 151.953125 256.96875 153.046875 C 257.558594 154.140625 258.117188 155.246094 258.652344 156.363281 C 259.183594 157.484375 259.691406 158.617188 260.167969 159.761719 C 260.644531 160.90625 261.09375 162.0625 261.511719 163.230469 C 261.933594 164.394531 262.324219 165.574219 262.6875 166.757812 C 263.046875 167.945312 263.382812 169.140625 263.683594 170.34375 C 263.988281 171.542969 264.261719 172.753906 264.503906 173.96875 C 264.746094 175.1875 264.960938 176.40625 265.144531 177.632812 C 265.328125 178.859375 265.480469 180.089844 265.601562 181.324219 C 265.722656 182.558594 265.816406 183.796875 265.875 185.035156 C 265.9375 186.273438 265.96875 187.511719 265.96875 188.753906 C 265.96875 189.992188 265.9375 191.234375 265.875 192.472656 C 265.816406 193.710938 265.722656 194.949219 265.601562 196.179688 C 265.480469 197.414062 265.328125 198.644531 265.144531 199.871094 C 264.960938 201.097656 264.746094 202.320312 264.503906 203.539062 C 264.261719 204.753906 263.988281 205.960938 263.683594 207.164062 C 263.382812 208.367188 263.046875 209.5625 262.6875 210.75 C 262.324219 211.933594 261.933594 213.113281 261.511719 214.277344 C 261.09375 215.445312 260.644531 216.601562 260.167969 217.746094 C 259.691406 218.890625 259.183594 220.023438 258.652344 221.140625 C 258.117188 222.261719 257.558594 223.367188 256.96875 224.460938 C 256.382812 225.550781 255.765625 226.628906 255.125 227.691406 C 254.484375 228.753906 253.816406 229.796875 253.125 230.828125 C 252.433594 231.855469 251.714844 232.867188 250.972656 233.859375 C 250.230469 234.855469 249.464844 235.828125 248.671875 236.785156 C 247.882812 237.738281 247.070312 238.675781 246.230469 239.589844 C 245.394531 240.503906 244.535156 241.398438 243.65625 242.273438 C 243.351562 242.570312 243.082031 242.898438 242.847656 243.25 C 242.609375 243.601562 242.40625 243.976562 242.242188 244.367188 C 242.078125 244.757812 241.957031 245.164062 241.871094 245.582031 C 241.785156 245.996094 241.742188 246.417969 241.742188 246.84375 C 241.742188 247.269531 241.78125 247.6875 241.863281 248.105469 C 241.945312 248.523438 242.066406 248.929688 242.226562 249.320312 C 242.386719 249.714844 242.585938 250.089844 242.820312 250.441406 C 243.054688 250.796875 243.324219 251.125 243.621094 251.425781 C 243.921875 251.726562 244.246094 251.996094 244.601562 252.234375 C 244.953125 252.472656 245.324219 252.671875 245.71875 252.835938 C 246.109375 253 246.515625 253.125 246.929688 253.210938 C 247.347656 253.292969 247.769531 253.335938 248.191406 253.339844 C 248.617188 253.339844 249.039062 253.300781 249.457031 253.21875 C 249.875 253.136719 250.277344 253.015625 250.671875 252.855469 C 251.066406 252.691406 251.4375 252.496094 251.792969 252.261719 C 252.148438 252.027344 252.476562 251.757812 252.777344 251.457031 C 253.808594 250.4375 254.8125 249.386719 255.792969 248.316406 C 256.773438 247.242188 257.726562 246.148438 258.652344 245.027344 C 259.578125 243.910156 260.476562 242.765625 261.34375 241.605469 C 262.214844 240.441406 263.054688 239.253906 263.867188 238.050781 C 264.675781 236.84375 265.457031 235.621094 266.207031 234.375 C 266.957031 233.132812 267.675781 231.871094 268.367188 230.59375 C 269.054688 229.3125 269.710938 228.019531 270.335938 226.707031 C 270.957031 225.394531 271.550781 224.066406 272.109375 222.726562 C 272.667969 221.386719 273.191406 220.03125 273.683594 218.664062 C 274.175781 217.300781 274.636719 215.921875 275.058594 214.53125 C 275.484375 213.140625 275.871094 211.742188 276.226562 210.335938 C 276.582031 208.925781 276.902344 207.507812 277.1875 206.085938 C 277.472656 204.660156 277.722656 203.230469 277.9375 201.792969 C 278.148438 200.355469 278.328125 198.914062 278.472656 197.46875 C 278.613281 196.023438 278.722656 194.574219 278.792969 193.125 C 278.867188 191.675781 278.902344 190.222656 278.902344 188.769531 C 278.902344 187.316406 278.867188 185.867188 278.792969 184.414062 C 278.722656 182.964844 278.613281 181.515625 278.472656 180.070312 C 278.328125 178.625 278.148438 177.183594 277.9375 175.746094 C 277.722656 174.308594 277.472656 172.878906 277.1875 171.453125 C 276.902344 170.03125 276.582031 168.613281 276.226562 167.207031 C 275.871094 165.796875 275.484375 164.398438 275.058594 163.007812 C 274.636719 161.617188 274.175781 160.242188 273.683594 158.875 C 273.191406 157.507812 272.667969 156.152344 272.109375 154.8125 C 271.550781 153.472656 270.957031 152.144531 270.335938 150.832031 C 269.710938 149.523438 269.054688 148.226562 268.367188 146.949219 C 267.675781 145.667969 266.957031 144.40625 266.207031 143.164062 C 265.457031 141.917969 264.675781 140.695312 263.867188 139.488281 C 263.054688 138.285156 262.214844 137.101562 261.34375 135.9375 C 260.476562 134.773438 259.578125 133.628906 258.652344 132.511719 C 257.726562 131.390625 256.773438 130.296875 255.792969 129.222656 C 254.8125 128.152344 253.808594 127.105469 252.777344 126.082031 Z M 252.777344 126.082031 " fill-opacity="1" fill-rule="nonzero"/></g><path fill="#ffffff" d="M 217.128906 161.46875 C 216.828125 161.167969 216.5 160.902344 216.144531 160.667969 C 215.792969 160.433594 215.417969 160.234375 215.023438 160.074219 C 214.632812 159.910156 214.226562 159.789062 213.808594 159.707031 C 213.390625 159.628906 212.972656 159.585938 212.546875 159.589844 C 212.121094 159.589844 211.699219 159.632812 211.285156 159.71875 C 210.867188 159.800781 210.460938 159.925781 210.070312 160.089844 C 209.679688 160.253906 209.304688 160.457031 208.953125 160.691406 C 208.601562 160.929688 208.273438 161.199219 207.976562 161.5 C 207.675781 161.800781 207.410156 162.128906 207.175781 162.484375 C 206.9375 162.839844 206.742188 163.210938 206.578125 163.605469 C 206.417969 164 206.296875 164.40625 206.214844 164.820312 C 206.132812 165.238281 206.09375 165.660156 206.097656 166.085938 C 206.097656 166.511719 206.140625 166.929688 206.226562 167.347656 C 206.308594 167.765625 206.433594 168.167969 206.597656 168.558594 C 206.761719 168.953125 206.960938 169.324219 207.199219 169.675781 C 207.4375 170.03125 207.707031 170.355469 208.007812 170.65625 C 208.605469 171.246094 209.171875 171.867188 209.707031 172.515625 C 210.242188 173.164062 210.746094 173.835938 211.214844 174.53125 C 211.6875 175.230469 212.121094 175.949219 212.519531 176.691406 C 212.917969 177.429688 213.277344 178.1875 213.601562 178.964844 C 213.925781 179.742188 214.210938 180.53125 214.457031 181.335938 C 214.699219 182.140625 214.90625 182.953125 215.070312 183.777344 C 215.234375 184.601562 215.359375 185.433594 215.441406 186.269531 C 215.527344 187.105469 215.566406 187.945312 215.566406 188.785156 C 215.566406 189.625 215.527344 190.464844 215.441406 191.300781 C 215.359375 192.140625 215.234375 192.96875 215.070312 193.792969 C 214.90625 194.617188 214.699219 195.433594 214.457031 196.238281 C 214.210938 197.042969 213.925781 197.832031 213.601562 198.609375 C 213.277344 199.382812 212.917969 200.140625 212.519531 200.882812 C 212.121094 201.621094 211.6875 202.34375 211.214844 203.039062 C 210.746094 203.738281 210.242188 204.410156 209.707031 205.058594 C 209.171875 205.703125 208.605469 206.324219 208.007812 206.917969 C 207.707031 207.214844 207.4375 207.542969 207.199219 207.894531 C 206.960938 208.246094 206.761719 208.621094 206.597656 209.011719 C 206.433594 209.402344 206.308594 209.808594 206.222656 210.226562 C 206.136719 210.640625 206.09375 211.0625 206.09375 211.488281 C 206.09375 211.914062 206.132812 212.335938 206.214844 212.75 C 206.292969 213.167969 206.414062 213.574219 206.578125 213.96875 C 206.738281 214.359375 206.9375 214.734375 207.171875 215.089844 C 207.40625 215.445312 207.671875 215.769531 207.972656 216.074219 C 208.273438 216.375 208.597656 216.644531 208.953125 216.882812 C 209.304688 217.121094 209.675781 217.320312 210.070312 217.484375 C 210.460938 217.648438 210.867188 217.773438 211.28125 217.855469 C 211.699219 217.941406 212.121094 217.984375 212.546875 217.984375 C 212.96875 217.988281 213.390625 217.945312 213.808594 217.863281 C 214.226562 217.785156 214.632812 217.660156 215.023438 217.5 C 215.417969 217.339844 215.792969 217.140625 216.144531 216.90625 C 216.5 216.671875 216.828125 216.402344 217.128906 216.101562 C 218.03125 215.210938 218.882812 214.277344 219.691406 213.300781 C 220.5 212.324219 221.253906 211.3125 221.964844 210.261719 C 222.671875 209.210938 223.324219 208.125 223.925781 207.011719 C 224.523438 205.894531 225.070312 204.753906 225.554688 203.582031 C 226.042969 202.414062 226.472656 201.222656 226.839844 200.011719 C 227.210938 198.800781 227.519531 197.574219 227.769531 196.332031 C 228.019531 195.089844 228.203125 193.835938 228.328125 192.578125 C 228.453125 191.316406 228.515625 190.054688 228.515625 188.785156 C 228.515625 187.519531 228.453125 186.253906 228.328125 184.996094 C 228.203125 183.734375 228.019531 182.484375 227.769531 181.242188 C 227.519531 180 227.210938 178.769531 226.839844 177.558594 C 226.472656 176.347656 226.042969 175.15625 225.554688 173.988281 C 225.070312 172.820312 224.523438 171.675781 223.925781 170.5625 C 223.324219 169.445312 222.671875 168.363281 221.964844 167.3125 C 221.253906 166.261719 220.5 165.246094 219.691406 164.269531 C 218.882812 163.292969 218.03125 162.359375 217.128906 161.46875 Z M 217.128906 161.46875 " fill-opacity="1" fill-rule="nonzero"/><g clip-path="url(#9f37f33f15)"><path fill="#ffffff" d="M 194.734375 136.890625 L 194.734375 238.101562 C 194.734375 248.488281 182.222656 253.78125 174.765625 246.53125 L 148.664062 221.167969 L 119.660156 221.167969 C 110.554688 221.203125 103.203125 213.816406 103.203125 204.746094 L 103.203125 170.277344 C 103.203125 161.207031 110.554688 153.820312 119.660156 153.820312 L 148.765625 153.820312 L 174.765625 128.492188 C 182.222656 121.207031 194.734375 126.503906 194.734375 136.890625 Z M 194.734375 136.890625 " fill-opacity="1" fill-rule="nonzero"/></g></svg>